<svg xmlns="http://www.w3.org/2000/svg" xmlns:xlink="http://www.w3.org/1999/xlink" width="200" zoomAndPan="magnify" viewBox="0 0 150 74.999997" height="100" preserveAspectRatio="xMidYMid meet" version="1.0"><defs><g/><clipPath id="e87f3a28ac"><path d="M 21.257812 4.957031 L 57.273438 4.957031 L 57.273438 39.917969 L 21.257812 39.917969 Z M 21.257812 4.957031 " clip-rule="nonzero"/></clipPath><clipPath id="4771eb8cdb"><path d="M 0.238281 28 L 26 28 L 26 58 L 0.238281 58 Z M 0.238281 28 " clip-rule="nonzero"/></clipPath><clipPath id="9bf6f3bf52"><rect x="0" width="17" y="0" height="29"/></clipPath><clipPath id="e3824bb793"><rect x="0" width="25" y="0" height="39"/></clipPath><clipPath id="3857633615"><rect x="0" width="22" y="0" height="39"/></clipPath><clipPath id="fbe4da9429"><rect x="0" width="41" y="0" height="39"/></clipPath><clipPath id="e0c5db16df"><path d="M 36 9 L 81.601562 9 L 81.601562 48 L 36 48 Z M 36 9 " clip-rule="nonzero"/></clipPath><clipPath id="6f9dbae753"><rect x="0" width="46" y="0" height="39"/></clipPath><clipPath id="70489b3466"><rect x="0" width="82" y="0" height="72"/></clipPath></defs><g transform="matrix(1, 0, 0, 1, 36, -0.000000000000001893)"><g clip-path="url(#70489b3466)"><g clip-path="url(#e87f3a28ac)"><path fill="#76993d" d="M 50.703125 17.789062 C 51.082031 18.449219 51.414062 19.023438 51.640625 19.445312 C 51.691406 19.542969 51.769531 19.625 51.875 19.683594 C 52.15625 19.832031 52.503906 19.726562 52.652344 19.445312 C 52.875 19.027344 53.207031 18.457031 53.582031 17.796875 C 55.019531 15.308594 57.144531 11.621094 57.144531 9.953125 C 57.144531 8.574219 56.582031 7.328125 55.679688 6.421875 L 55.675781 6.417969 C 54.773438 5.515625 53.523438 4.957031 52.144531 4.957031 C 50.765625 4.957031 49.519531 5.515625 48.613281 6.417969 L 48.613281 6.421875 C 47.707031 7.328125 47.148438 8.574219 47.148438 9.953125 C 47.148438 11.628906 49.265625 15.296875 50.703125 17.789062 Z M 49.425781 7.234375 C 50.121094 6.539062 51.082031 6.109375 52.144531 6.109375 C 53.207031 6.109375 54.171875 6.539062 54.867188 7.234375 C 55.5625 7.929688 55.992188 8.890625 55.992188 9.953125 C 55.992188 11.324219 53.960938 14.847656 52.589844 17.226562 L 52.144531 18 L 51.695312 17.21875 C 50.324219 14.835938 48.300781 11.328125 48.300781 9.953125 C 48.300781 8.890625 48.730469 7.929688 49.425781 7.234375 Z M 53.734375 11.394531 C 54.140625 10.988281 54.394531 10.425781 54.394531 9.804688 C 54.394531 9.1875 54.140625 8.625 53.734375 8.21875 C 53.328125 7.8125 52.765625 7.558594 52.144531 7.558594 C 51.523438 7.558594 50.964844 7.808594 50.554688 8.21875 C 50.148438 8.625 49.898438 9.1875 49.898438 9.804688 C 49.898438 10.425781 50.148438 10.988281 50.554688 11.394531 C 50.960938 11.800781 51.523438 12.054688 52.144531 12.054688 C 52.765625 12.050781 53.328125 11.800781 53.734375 11.394531 Z M 51.050781 9.804688 C 51.050781 9.503906 51.171875 9.226562 51.371094 9.03125 C 51.566406 8.832031 51.84375 8.707031 52.148438 8.707031 C 52.449219 8.707031 52.722656 8.832031 52.921875 9.03125 C 53.121094 9.226562 53.242188 9.503906 53.242188 9.804688 C 53.242188 10.109375 53.121094 10.382812 52.921875 10.578125 C 52.726562 10.777344 52.449219 10.902344 52.148438 10.902344 C 51.84375 10.902344 51.570312 10.777344 51.371094 10.578125 C 51.171875 10.382812 51.050781 10.109375 51.050781 9.804688 Z M 38.074219 11.3125 C 38.933594 11.3125 39.710938 10.96875 40.285156 10.414062 L 40.320312 10.378906 C 40.894531 9.804688 41.253906 9.011719 41.253906 8.132812 C 41.253906 7.261719 40.898438 6.46875 40.320312 5.890625 L 40.320312 5.886719 C 39.742188 5.3125 38.949219 4.957031 38.074219 4.957031 C 37.199219 4.957031 36.402344 5.3125 35.828125 5.886719 C 35.253906 6.464844 34.898438 7.257812 34.898438 8.132812 C 34.898438 9.011719 35.253906 9.804688 35.828125 10.378906 C 36.402344 10.953125 37.199219 11.3125 38.074219 11.3125 Z M 36.640625 6.699219 L 36.644531 6.699219 C 37.007812 6.335938 37.515625 6.109375 38.074219 6.109375 C 38.636719 6.109375 39.144531 6.332031 39.507812 6.699219 C 39.507812 6.699219 39.511719 6.703125 39.511719 6.703125 C 39.875 7.066406 40.101562 7.574219 40.101562 8.136719 C 40.101562 8.695312 39.875 9.203125 39.507812 9.566406 L 39.484375 9.59375 C 39.121094 9.945312 38.625 10.160156 38.074219 10.160156 C 37.515625 10.160156 37.007812 9.933594 36.644531 9.566406 C 36.277344 9.203125 36.050781 8.695312 36.050781 8.136719 C 36.046875 7.574219 36.273438 7.066406 36.640625 6.699219 Z M 38.074219 4.957031 Z M 56.15625 19.765625 C 52.308594 23.71875 49.777344 25.652344 47.242188 26.839844 L 44.023438 19.96875 C 44.429688 19.914062 44.800781 19.738281 45.089844 19.464844 L 45.125 19.429688 C 45.472656 19.085938 45.6875 18.609375 45.6875 18.082031 C 45.6875 17.558594 45.472656 17.082031 45.125 16.734375 C 44.78125 16.390625 44.304688 16.175781 43.777344 16.175781 L 40.1875 16.171875 L 37.019531 12.355469 C 36.886719 12.199219 36.574219 11.949219 36.253906 11.753906 C 36.003906 11.605469 35.730469 11.476562 35.480469 11.425781 C 34.921875 11.238281 34.347656 11.226562 33.8125 11.363281 L 33.835938 11.304688 C 33.960938 10.972656 33.933594 10.621094 33.796875 10.320312 C 33.65625 10.019531 33.40625 9.769531 33.070312 9.648438 L 29.589844 8.359375 C 29.566406 8.347656 29.539062 8.339844 29.511719 8.332031 C 29.191406 8.226562 28.859375 8.253906 28.570312 8.386719 C 28.285156 8.519531 28.042969 8.753906 27.917969 9.066406 C 27.90625 9.089844 27.894531 9.117188 27.886719 9.144531 L 24.609375 18.007812 C 24.488281 18.339844 24.511719 18.691406 24.652344 18.992188 C 24.789062 19.292969 25.042969 19.542969 25.375 19.664062 L 28.890625 20.964844 C 28.925781 20.976562 28.957031 20.972656 28.992188 20.980469 C 28.730469 21.757812 28.757812 22.453125 29.027344 23.054688 C 29.3125 23.699219 29.863281 24.207031 30.589844 24.582031 L 30.625 24.597656 L 30.625 28.933594 L 26.945312 33.1875 C 25.730469 33.800781 24.65625 34.519531 23.730469 35.414062 C 22.796875 36.316406 22.015625 37.390625 21.394531 38.714844 C 21.261719 39 21.386719 39.34375 21.671875 39.476562 C 21.957031 39.609375 22.300781 39.484375 22.433594 39.199219 C 22.992188 38.011719 23.6875 37.046875 24.523438 36.242188 C 24.753906 36.019531 25 35.808594 25.25 35.609375 C 25.230469 35.742188 25.222656 35.882812 25.234375 36.015625 C 25.269531 36.488281 25.476562 36.945312 25.847656 37.285156 C 25.871094 37.3125 25.902344 37.335938 25.929688 37.359375 C 26.320312 37.675781 26.800781 37.8125 27.269531 37.78125 C 27.757812 37.746094 28.230469 37.523438 28.574219 37.125 L 32.832031 32.207031 L 34.136719 31.820312 L 35.789062 31.339844 C 36.253906 31.207031 36.652344 31.09375 37.042969 30.984375 C 37.222656 30.933594 37.40625 30.886719 37.601562 30.832031 L 38.261719 34.328125 C 38.289062 34.476562 38.339844 34.617188 38.398438 34.753906 C 38.308594 34.695312 38.199219 34.65625 38.0625 34.664062 C 38.023438 34.667969 37.992188 34.671875 37.953125 34.683594 C 37.578125 34.78125 37.199219 34.890625 36.828125 35.007812 C 36.171875 35.214844 36.363281 36.203125 37.070312 36.128906 C 37.105469 36.121094 37.132812 36.117188 37.167969 36.105469 C 37.523438 35.992188 37.890625 35.890625 38.253906 35.792969 C 38.566406 35.710938 38.695312 35.433594 38.667969 35.175781 C 38.785156 35.316406 38.914062 35.445312 39.0625 35.546875 C 39.453125 35.816406 39.945312 35.9375 40.445312 35.855469 C 40.476562 35.851562 40.507812 35.847656 40.535156 35.839844 C 41.03125 35.730469 41.441406 35.4375 41.710938 35.046875 C 41.730469 35.019531 41.742188 34.988281 41.757812 34.957031 L 42.625 34.769531 C 43.285156 34.632812 43.199219 33.632812 42.492188 33.632812 C 42.453125 33.636719 42.421875 33.636719 42.382812 33.648438 L 42.019531 33.726562 C 42.015625 33.691406 42.015625 33.65625 42.007812 33.621094 L 41.308594 29.902344 C 43.375 29.402344 45.0625 28.980469 46.679688 28.339844 L 47.945312 31.035156 C 48.078125 31.320312 48.417969 31.445312 48.707031 31.3125 C 48.992188 31.175781 49.117188 30.835938 48.980469 30.550781 L 47.734375 27.886719 C 50.367188 26.65625 52.992188 24.660156 56.980469 20.5625 C 57.199219 20.335938 57.195312 19.972656 56.96875 19.753906 C 56.738281 19.535156 56.375 19.539062 56.15625 19.765625 Z M 25.773438 18.585938 C 25.738281 18.574219 25.707031 18.546875 25.695312 18.511719 C 25.679688 18.480469 25.675781 18.441406 25.691406 18.402344 L 28.980469 9.503906 C 28.992188 9.472656 29.019531 9.445312 29.050781 9.429688 C 29.085938 9.414062 29.125 9.410156 29.160156 9.425781 L 32.675781 10.726562 C 32.710938 10.738281 32.738281 10.765625 32.753906 10.796875 L 32.753906 10.800781 C 32.769531 10.832031 32.773438 10.871094 32.757812 10.910156 L 32.175781 12.480469 C 32.011719 12.707031 31.863281 12.949219 31.765625 13.226562 L 29.359375 19.929688 C 29.335938 19.917969 29.316406 19.898438 29.289062 19.886719 Z M 27.710938 36.378906 C 27.574219 36.535156 27.386719 36.621094 27.191406 36.636719 C 26.996094 36.652344 26.796875 36.589844 26.640625 36.457031 L 26.632812 36.453125 C 26.480469 36.316406 26.394531 36.128906 26.378906 35.9375 C 26.367188 35.742188 26.425781 35.542969 26.558594 35.386719 L 31.632812 29.523438 C 31.726562 29.414062 31.769531 29.28125 31.773438 29.148438 L 31.773438 25.085938 L 33.285156 25.71875 C 33.277344 27.027344 33.242188 28.390625 33.289062 29.679688 C 33.285156 29.757812 33.269531 29.835938 33.242188 29.914062 C 33.210938 29.996094 33.164062 30.070312 33.105469 30.140625 Z M 36.742188 29.882812 C 36.371094 29.984375 35.96875 30.097656 35.472656 30.242188 L 34.167969 30.617188 C 34.226562 30.523438 34.277344 30.421875 34.316406 30.316406 C 34.390625 30.121094 34.429688 29.914062 34.433594 29.707031 C 34.492188 28.59375 34.460938 27.371094 34.445312 26.203125 L 36.921875 27.242188 L 37.386719 29.707031 C 37.179688 29.761719 36.964844 29.820312 36.742188 29.882812 Z M 40.277344 34.722656 L 40.265625 34.722656 C 40.066406 34.757812 39.867188 34.710938 39.707031 34.601562 C 39.546875 34.492188 39.429688 34.320312 39.390625 34.117188 L 37.996094 26.722656 C 37.957031 26.523438 37.824219 26.371094 37.652344 26.296875 L 34.09375 24.808594 C 34.089844 24.808594 34.085938 24.808594 34.082031 24.804688 L 31.429688 23.691406 C 31.425781 23.691406 31.421875 23.691406 31.417969 23.6875 L 31.109375 23.558594 C 30.613281 23.304688 30.25 22.980469 30.074219 22.585938 C 29.917969 22.234375 29.90625 21.800781 30.089844 21.292969 L 32.84375 13.613281 C 33.011719 13.148438 33.355469 12.792969 33.773438 12.59375 C 34.195312 12.394531 34.6875 12.355469 35.152344 12.523438 C 35.183594 12.535156 35.214844 12.542969 35.25 12.546875 L 35.25 12.550781 C 35.351562 12.566406 35.507812 12.644531 35.660156 12.738281 C 35.878906 12.871094 36.070312 13.015625 36.148438 13.101562 L 39.476562 17.113281 C 39.597656 17.261719 39.78125 17.332031 39.957031 17.320312 L 43.777344 17.324219 C 43.984375 17.324219 44.175781 17.410156 44.3125 17.550781 C 44.449219 17.6875 44.535156 17.875 44.535156 18.085938 C 44.535156 18.292969 44.449219 18.480469 44.3125 18.617188 L 44.292969 18.640625 C 44.15625 18.765625 43.976562 18.839844 43.777344 18.839844 L 43.777344 18.84375 L 39.285156 18.84375 C 39.179688 18.84375 39.074219 18.820312 38.976562 18.773438 C 38.886719 18.730469 38.800781 18.671875 38.730469 18.589844 L 35.570312 15.03125 C 35.359375 14.792969 34.996094 14.773438 34.761719 14.984375 C 34.523438 15.191406 34.5 15.554688 34.710938 15.792969 L 35.558594 16.746094 L 33.640625 22.097656 C 33.539062 22.378906 33.671875 22.683594 33.933594 22.808594 L 38.726562 25.101562 C 38.917969 25.210938 39.082031 25.316406 39.191406 25.425781 C 39.269531 25.507812 39.328125 25.605469 39.351562 25.730469 L 40.882812 33.835938 C 40.921875 34.042969 40.871094 34.246094 40.761719 34.40625 C 40.648438 34.5625 40.480469 34.683594 40.277344 34.722656 Z M 41.09375 28.777344 L 40.476562 25.515625 C 40.40625 25.144531 40.246094 24.859375 40.011719 24.625 C 39.804688 24.414062 39.5625 24.253906 39.285156 24.097656 L 34.890625 21.996094 L 36.425781 17.71875 L 37.871094 19.347656 C 38.050781 19.550781 38.265625 19.707031 38.5 19.816406 C 38.742188 19.925781 39.003906 19.984375 39.265625 19.988281 L 42.765625 19.988281 L 46.1875 27.289062 C 44.652344 27.894531 43.042969 28.300781 41.09375 28.777344 Z M 35.058594 36.867188 C 34.699219 37.019531 34.371094 37.191406 34.019531 37.359375 C 33.3125 37.636719 32.898438 36.652344 33.523438 36.320312 C 33.878906 36.136719 34.269531 35.941406 34.640625 35.796875 C 35.339844 35.5625 35.730469 36.570312 35.058594 36.867188 Z M 55.664062 29.808594 C 55.363281 30.078125 55.042969 30.324219 54.714844 30.5625 C 54.667969 30.59375 54.632812 30.609375 54.585938 30.628906 C 53.910156 30.855469 53.527344 29.980469 54.046875 29.625 C 54.34375 29.414062 54.632812 29.1875 54.902344 28.945312 C 55.46875 28.453125 56.226562 29.285156 55.664062 29.808594 Z M 46.003906 34.015625 C 45.628906 34.105469 45.253906 34.191406 44.878906 34.28125 C 44.839844 34.289062 44.808594 34.292969 44.769531 34.292969 C 44.042969 34.292969 43.980469 33.292969 44.621094 33.160156 C 44.996094 33.074219 45.363281 32.988281 45.734375 32.898438 C 46.488281 32.738281 46.738281 33.824219 46.003906 34.015625 Z M 49.773438 32.503906 C 49.789062 32.773438 49.625 33.003906 49.375 33.085938 C 49.003906 33.203125 48.632812 33.320312 48.257812 33.425781 C 48.175781 33.449219 48.125 33.453125 48.039062 33.449219 C 47.394531 33.375 47.351562 32.476562 47.9375 32.324219 C 48.300781 32.214844 48.660156 32.105469 49.023438 31.992188 C 49.378906 31.871094 49.753906 32.132812 49.773438 32.503906 Z M 32.277344 38.550781 C 32.015625 38.785156 31.773438 39.039062 31.554688 39.3125 C 31.53125 39.339844 31.511719 39.363281 31.488281 39.382812 C 30.9375 39.855469 30.226562 39.128906 30.652344 38.597656 C 30.910156 38.273438 31.199219 37.972656 31.507812 37.695312 C 31.546875 37.660156 31.585938 37.636719 31.632812 37.609375 C 32.25 37.320312 32.761719 38.101562 32.277344 38.550781 Z M 52.65625 31.78125 C 52.304688 31.957031 51.945312 32.117188 51.578125 32.273438 C 50.863281 32.550781 50.441406 31.519531 51.132812 31.214844 C 51.476562 31.066406 51.8125 30.914062 52.148438 30.75 C 52.292969 30.671875 52.460938 30.675781 52.609375 30.726562 C 53.078125 30.921875 53.109375 31.542969 52.65625 31.78125 Z M 52.65625 31.78125 " fill-opacity="1" fill-rule="nonzero"/></g><g fill="#76993d" fill-opacity="1"><g transform="translate(35.083904, 68.762854)"><g><path d="M 4.65625 -4.546875 L 3.046875 0 L 1.671875 0 L 0.0625 -4.546875 L 1.234375 -4.546875 L 2.359375 -1.109375 L 3.5 -4.546875 Z M 4.65625 -4.546875 "/></g></g></g><g fill="#76993d" fill-opacity="1"><g transform="translate(44.971312, 68.762854)"><g><path d="M 1.5 -3.65625 L 1.5 -2.734375 L 2.984375 -2.734375 L 2.984375 -1.875 L 1.5 -1.875 L 1.5 -0.890625 L 3.1875 -0.890625 L 3.1875 0 L 0.40625 0 L 0.40625 -4.546875 L 3.1875 -4.546875 L 3.1875 -3.65625 Z M 1.5 -3.65625 "/></g></g></g><g fill="#76993d" fill-opacity="1"><g transform="translate(53.637825, 68.762854)"><g><path d="M 2.71875 0 L 1.765625 -1.71875 L 1.5 -1.71875 L 1.5 0 L 0.40625 0 L 0.40625 -4.546875 L 2.25 -4.546875 C 2.613281 -4.546875 2.921875 -4.484375 3.171875 -4.359375 C 3.421875 -4.234375 3.609375 -4.0625 3.734375 -3.84375 C 3.859375 -3.625 3.921875 -3.378906 3.921875 -3.109375 C 3.921875 -2.804688 3.835938 -2.535156 3.671875 -2.296875 C 3.503906 -2.066406 3.253906 -1.898438 2.921875 -1.796875 L 3.96875 0 Z M 1.5 -2.5 L 2.1875 -2.5 C 2.394531 -2.5 2.546875 -2.546875 2.640625 -2.640625 C 2.742188 -2.742188 2.796875 -2.882812 2.796875 -3.0625 C 2.796875 -3.238281 2.742188 -3.375 2.640625 -3.46875 C 2.546875 -3.570312 2.394531 -3.625 2.1875 -3.625 L 1.5 -3.625 Z M 1.5 -2.5 "/></g></g></g><g fill="#76993d" fill-opacity="1"><g transform="translate(63.021373, 68.762854)"><g><path d="M 2.109375 -4.546875 C 2.585938 -4.546875 3.003906 -4.445312 3.359375 -4.25 C 3.710938 -4.0625 3.988281 -3.796875 4.1875 -3.453125 C 4.382812 -3.109375 4.484375 -2.710938 4.484375 -2.265625 C 4.484375 -1.828125 4.382812 -1.429688 4.1875 -1.078125 C 3.988281 -0.734375 3.707031 -0.46875 3.34375 -0.28125 C 2.988281 -0.09375 2.578125 0 2.109375 0 L 0.40625 0 L 0.40625 -4.546875 Z M 2.03125 -0.953125 C 2.445312 -0.953125 2.769531 -1.066406 3 -1.296875 C 3.238281 -1.523438 3.359375 -1.847656 3.359375 -2.265625 C 3.359375 -2.679688 3.238281 -3.003906 3 -3.234375 C 2.769531 -3.472656 2.445312 -3.59375 2.03125 -3.59375 L 1.5 -3.59375 L 1.5 -0.953125 Z M 2.03125 -0.953125 "/></g></g></g><g fill="#76993d" fill-opacity="1"><g transform="translate(72.889403, 68.762854)"><g><path d="M 1.5 -3.65625 L 1.5 -2.734375 L 2.984375 -2.734375 L 2.984375 -1.875 L 1.5 -1.875 L 1.5 -0.890625 L 3.1875 -0.890625 L 3.1875 0 L 0.40625 0 L 0.40625 -4.546875 L 3.1875 -4.546875 L 3.1875 -3.65625 Z M 1.5 -3.65625 "/></g></g></g><g clip-path="url(#4771eb8cdb)"><g fill="#012c18" fill-opacity="1"><g transform="translate(0.547366, 56.288581)"><g><path d="M 11 1.28125 L 9.234375 -25.328125 L 0.171875 -26.171875 L 0.171875 -27.578125 L 25.296875 -27.578125 L 25.296875 -26.171875 L 16.203125 -25.328125 L 14.4375 1.28125 Z M 11 1.28125 "/></g></g></g></g><g transform="matrix(1, 0, 0, 1, 21, 36)"><g clip-path="url(#9bf6f3bf52)"><g fill="#012c18" fill-opacity="1"><g transform="translate(0.642904, 22.335468)"><g><path d="M 2.0625 0.890625 L 2.0625 -16.625 L 14.40625 -16.359375 L 14.40625 -15.375 L 5.75 -15.15625 L 5.75 -9.03125 L 13.640625 -8.75 L 13.640625 -7.8125 L 5.75 -7.53125 L 5.75 -0.578125 L 14.40625 -0.359375 L 14.40625 0.625 Z M 2.0625 0.890625 "/></g></g></g></g></g><g transform="matrix(1, 0, 0, 1, 34, 30)"><g clip-path="url(#e3824bb793)"><g fill="#012c18" fill-opacity="1"><g transform="translate(0.440744, 30.504312)"><g><path d="M 4.09375 1.015625 L 2.625 -22 L 12.59375 -22 L 21.421875 -19.359375 L 21.421875 -11.515625 L 16.125 -9.65625 L 20.515625 0.1875 L 18.53125 1.046875 L 11.546875 -8.8125 L 7.453125 -8.8125 L 6.8125 1.015625 Z M 11.671875 -20.34375 L 8.171875 -20.34375 L 7.5625 -10.46875 L 12.59375 -10.46875 L 16.53125 -11.921875 L 16.53125 -18.796875 Z M 11.671875 -20.34375 "/></g></g></g></g></g><g transform="matrix(1, 0, 0, 1, 53, 23)"><g clip-path="url(#3857633615)"><g fill="#012c18" fill-opacity="1"><g transform="translate(0.91572, 29.692675)"><g><path d="M 2.765625 1.1875 L 2.765625 -22.171875 L 19.21875 -21.8125 L 19.21875 -20.515625 L 7.671875 -20.203125 L 7.671875 -12.03125 L 18.1875 -11.671875 L 18.1875 -10.40625 L 7.671875 -10.046875 L 7.671875 -0.765625 L 19.21875 -0.46875 L 19.21875 0.828125 Z M 2.765625 1.1875 "/></g></g></g></g></g><g transform="matrix(1, 0, 0, 1, 38, -0.000000000000001893)"><g clip-path="url(#fbe4da9429)"><g fill="#012c18" fill-opacity="1"><g transform="translate(30.101499, 1.271227)"><g><path d="M -2.3125 20.046875 L -1.40625 21.15625 L -8.8125 28.25 L -10.828125 25.921875 Z M -2.3125 20.046875 "/></g></g></g></g></g><g clip-path="url(#e0c5db16df)"><g transform="matrix(1, 0, 0, 1, 36, 9)"><g clip-path="url(#6f9dbae753)"><g fill="#012c18" fill-opacity="1"><g transform="translate(9.108134, 8.978911)"><g><path d="M 19.890625 3.4375 L 21.046875 2.59375 L 27.703125 10.40625 L 25.265625 12.28125 Z M 19.890625 3.4375 "/></g></g></g></g></g></g></g></g></svg>